<svg xmlns="http://www.w3.org/2000/svg" viewBox="0 0 900 560">
<defs><linearGradient id="g" x1="0" x2="1"><stop stop-color="#3154df"/><stop offset="1" stop-color="#7448e8"/></linearGradient><filter id="s"><feDropShadow dx="0" dy="18" stdDeviation="20" flood-opacity=".28"/></filter></defs>
<rect width="900" height="560" rx="34" fill="#080b16"/>
<rect x="24" y="24" width="852" height="512" rx="26" fill="#0d1221" stroke="#27304b"/>
<rect x="24" y="24" width="190" height="512" rx="26" fill="#0a0e19"/>
<circle cx="65" cy="64" r="18" fill="url(#g)"/><text x="96" y="70" fill="#fff" font-family="Arial" font-size="19" font-weight="700">الخوارزمي</text>
<g fill="#9da6bf" font-family="Arial" font-size="14"><text x="54" y="122">الرئيسية</text><text x="54" y="166">الكورسات</text><text x="54" y="210">الفيديوهات</text><text x="54" y="254">الملفات PDF</text><text x="54" y="298">الامتحانات</text><text x="54" y="342">مساعد AI</text></g>
<rect x="242" y="48" width="604" height="78" rx="20" fill="#12192b"/><text x="270" y="78" fill="#818ba7" font-family="Arial" font-size="12">أهلاً بيك في منصتك التعليمية</text><text x="270" y="105" fill="#fff" font-family="Arial" font-size="22" font-weight="700">كمّل رحلتك التعليمية النهارده 🚀</text>
<rect x="242" y="148" width="190" height="112" rx="20" fill="#10182a"/><text x="264" y="178" fill="#8993ad" font-family="Arial" font-size="12">نسبة التقدم</text><text x="264" y="222" fill="#fff" font-family="Arial" font-size="32" font-weight="700">78%</text><rect x="264" y="237" width="142" height="7" rx="4" fill="#27324b"/><rect x="264" y="237" width="111" height="7" rx="4" fill="url(#g)"/>
<rect x="448" y="148" width="190" height="112" rx="20" fill="#10182a"/><text x="470" y="178" fill="#8993ad" font-family="Arial" font-size="12">الدروس المكتملة</text><text x="470" y="222" fill="#fff" font-family="Arial" font-size="32" font-weight="700">24</text><text x="470" y="244" fill="#6e79a0" font-family="Arial" font-size="11">من أصل 31 درس</text>
<rect x="654" y="148" width="192" height="112" rx="20" fill="#10182a"/><text x="676" y="178" fill="#8993ad" font-family="Arial" font-size="12">متوسط الدرجات</text><text x="676" y="222" fill="#fff" font-family="Arial" font-size="32" font-weight="700">92%</text><text x="676" y="244" fill="#6e79a0" font-family="Arial" font-size="11">أداء ممتاز</text>
<rect x="242" y="282" width="604" height="224" rx="22" fill="#10182a"/><text x="268" y="316" fill="#fff" font-family="Arial" font-size="16" font-weight="700">كمّل من حيث توقفت</text>
<rect x="268" y="340" width="552" height="54" rx="15" fill="#151d31"/><circle cx="295" cy="367" r="15" fill="url(#g)"/><text x="323" y="361" fill="#fff" font-family="Arial" font-size="13">الرياضيات • الجبر</text><text x="323" y="380" fill="#74809d" font-family="Arial" font-size="11">الدرس 8 • 14 دقيقة متبقية</text><rect x="746" y="358" width="56" height="22" rx="11" fill="url(#g)"/><text x="758" y="373" fill="#fff" font-family="Arial" font-size="10">ابدأ</text>
<rect x="268" y="410" width="552" height="70" rx="17" fill="#151d31"/><text x="292" y="438" fill="#fff" font-family="Arial" font-size="13">اسأل مساعد الخوارزمي AI</text><text x="292" y="459" fill="#74809d" font-family="Arial" font-size="11">شرح، تلخيص، حل أسئلة، ومراجعة قبل الامتحان</text><circle cx="785" cy="445" r="20" fill="url(#g)" filter="url(#s)"/><text x="779" y="451" fill="#fff" font-family="Arial" font-size="15">AI</text>
</svg>
